<svg width="24" height="24" viewBox="0 0 24 24" fill="none" xmlns="http://www.w3.org/2000/svg">
<path d="M21.7363 21.4286L24.6231 16.4286L18.8496 16.4286L21.7363 21.4286ZM21.7363 8.57145L18.8496 13.5714L24.6231 13.5714L21.7363 8.57145ZM22.2363 16.9286L22.2363 13.0714L21.2363 13.0714L21.2363 16.9286L22.2363 16.9286Z" fill="currentColor"/>
<path d="M19.0186 21L14.0186 18.1132L14.0186 23.8868L19.0186 21ZM5.88648 21L10.8865 23.8868L10.8865 18.1132L5.88648 21ZM14.5186 20.5L10.3865 20.5L10.3865 21.5L14.5186 21.5L14.5186 20.5Z" fill="currentColor"/>
<path fill-rule="evenodd" clip-rule="evenodd" d="M2.3584 4.42859H20.581V6.61846H21.581V4.42859V3.42859H20.581H2.3584H1.3584V4.42859V20.2007V21.2007H2.3584H4.24734V20.2007H2.3584V4.42859Z" fill="currentColor"/>
</svg>
