<svg width="20" height="17" viewBox="0 0 20 17" fill="none" xmlns="http://www.w3.org/2000/svg">
<path d="M18.0731 0.00172659C17.8412 0.0185946 17.6137 0.0729871 17.3992 0.162782H17.3964C17.1905 0.244393 16.2119 0.65606 14.7241 1.28006L9.39269 3.52545C5.56707 5.136 1.80646 6.722 1.80646 6.722L1.85124 6.70467C1.85124 6.70467 1.59196 6.78989 1.32113 6.9755C1.15381 7.08198 1.00983 7.22128 0.897908 7.385C0.76502 7.58 0.658131 7.87828 0.697853 8.18667C0.762853 8.70812 1.10085 9.02084 1.34352 9.19345C1.58907 9.36823 1.82307 9.44984 1.82307 9.44984H1.82885L5.35546 10.6379C5.51363 11.1456 6.43013 14.1587 6.65041 14.8528C6.78041 15.2673 6.9068 15.5266 7.06496 15.7245C7.14152 15.8256 7.23107 15.9101 7.33869 15.978C7.39463 16.0105 7.45428 16.0362 7.51635 16.0546L7.48024 16.0459C7.49107 16.0488 7.49974 16.0575 7.50769 16.0603C7.53657 16.0683 7.55607 16.0712 7.59291 16.077C8.15119 16.246 8.59969 15.8993 8.59969 15.8993L8.62496 15.8791L10.7071 13.9832L14.1969 16.6605L14.2764 16.6945C15.0036 17.0137 15.7403 16.836 16.1296 16.5226C16.5217 16.207 16.6741 15.8032 16.6741 15.8032L16.6994 15.7382L19.3962 1.92284C19.4727 1.58195 19.4922 1.26273 19.4077 0.952893C19.3206 0.639323 19.1194 0.369632 18.8437 0.196726C18.6122 0.0559762 18.3437 -0.0119606 18.0731 0.00172659ZM18.0001 1.48228C17.9972 1.52778 18.0059 1.52273 17.9857 1.61012V1.61806L15.3142 15.2897C15.3026 15.3092 15.2831 15.3518 15.2297 15.3945C15.1734 15.4392 15.1286 15.4674 14.8939 15.3742L10.6255 12.1018L8.04719 14.452L8.58885 10.9925L15.5626 4.4925C15.8501 4.22528 15.754 4.16895 15.754 4.16895C15.7742 3.84106 15.32 4.07289 15.32 4.07289L6.52619 9.52062L6.5233 9.50617L2.30841 8.087V8.08412L2.29758 8.08195C2.30496 8.0795 2.3122 8.0766 2.31924 8.07328L2.34235 8.06173L2.36474 8.05378C2.36474 8.05378 6.12824 6.46778 9.95385 4.85723C11.8692 4.0505 13.799 3.238 15.2831 2.61112C16.1633 2.24062 17.0444 1.87228 17.9265 1.50612C17.9857 1.483 17.9575 1.48228 18.0001 1.48228Z" fill="currentColor"/>
</svg>
