<svg width="18" height="18" viewBox="0 0 18 18" fill="none" xmlns="http://www.w3.org/2000/svg">
<path d="M15.1111 2.58672C14.2962 1.76354 13.3255 1.11087 12.2557 0.666765C11.1859 0.222661 10.0383 -0.00398232 8.88 5.29508e-05C4.02667 5.29508e-05 0.0711113 3.95561 0.0711113 8.80894C0.0711113 10.3645 0.48 11.8756 1.24444 13.2089L0 17.7778L4.66667 16.5512C5.95556 17.2534 7.40444 17.6267 8.88 17.6267C13.7333 17.6267 17.6889 13.6712 17.6889 8.81783C17.6889 6.46228 16.7733 4.24894 15.1111 2.58672ZM8.88 16.1334C7.56444 16.1334 6.27556 15.7778 5.14667 15.1112L4.88 14.9512L2.10667 15.6801L2.84444 12.9778L2.66667 12.7023C1.93577 11.5351 1.54768 10.186 1.54667 8.80894C1.54667 4.77339 4.83556 1.4845 8.87111 1.4845C10.8267 1.4845 12.6667 2.24894 14.0444 3.63561C14.7267 4.31469 15.2673 5.12242 15.635 6.01199C16.0027 6.90155 16.1903 7.85526 16.1867 8.81783C16.2044 12.8534 12.9156 16.1334 8.88 16.1334ZM12.8978 10.6578C12.6756 10.5512 11.5911 10.0178 11.3956 9.93783C11.1911 9.86672 11.0489 9.83116 10.8978 10.0445C10.7467 10.2667 10.3289 10.7645 10.2044 10.9067C10.08 11.0578 9.94667 11.0756 9.72444 10.9601C9.50222 10.8534 8.79111 10.6134 7.95556 9.86672C7.29778 9.28005 6.86222 8.56005 6.72889 8.33783C6.60444 8.11561 6.71111 8.00005 6.82667 7.8845C6.92444 7.78672 7.04889 7.62672 7.15556 7.50227C7.26222 7.37783 7.30667 7.28005 7.37778 7.13783C7.44889 6.98672 7.41333 6.86228 7.36 6.75561C7.30667 6.64894 6.86222 5.5645 6.68444 5.12005C6.50667 4.69339 6.32 4.74672 6.18667 4.73783H5.76C5.60889 4.73783 5.37778 4.79116 5.17333 5.01339C4.97778 5.23561 4.40889 5.76894 4.40889 6.85339C4.40889 7.93783 5.2 8.98672 5.30667 9.12894C5.41333 9.28005 6.86222 11.5023 9.06667 12.4534C9.59111 12.6845 10 12.8178 10.32 12.9156C10.8444 13.0845 11.3244 13.0578 11.7067 13.0045C12.1333 12.9423 13.0133 12.4712 13.1911 11.9556C13.3778 11.4401 13.3778 11.0045 13.3156 10.9067C13.2533 10.8089 13.12 10.7645 12.8978 10.6578Z" fill="currentColor"/>
</svg>
