<svg width="68" height="68" viewBox="0 0 68 68" fill="none" xmlns="http://www.w3.org/2000/svg">
<g id="material-symbols:whatshot-outline">
<path id="Vector" d="M25.2079 60.1683C28.0332 61.1112 30.9629 61.5832 34.0003 61.5832C37.8203 61.5832 41.3892 60.859 44.7149 59.4154C48.0551 57.9654 50.9745 55.9876 53.4788 53.4815C55.9824 50.9761 57.9603 48.0448 59.4124 44.6817C60.8591 41.3313 61.5837 37.7731 61.5837 33.9998V33.9991C61.5873 30.1817 60.8624 26.6134 59.4134 23.2861C57.9575 19.9432 55.9795 17.0235 53.4788 14.521C50.9783 12.0187 48.0598 10.0408 44.7172 8.58693C41.3898 7.13969 37.8203 6.41467 34.0007 6.41651C30.1806 6.41835 26.5986 7.14347 23.2472 8.58793C19.8816 10.0385 16.9632 12.0041 14.485 14.4841C12.0066 16.9644 10.0407 19.8831 8.58822 23.2471C7.23707 26.3764 6.51536 29.7085 6.42638 33.2498H10.5942C10.7664 27.0951 13.0475 21.8082 17.4246 17.4274C21.9788 12.8693 27.5185 10.5832 34.0003 10.5832C40.4821 10.5832 46.0217 12.8683 50.5759 17.4245C55.1299 21.9804 57.415 27.5199 57.417 33.9996C57.4189 40.4797 55.1337 46.0194 50.5757 50.5755C46.0181 55.1311 40.4788 57.4164 34.0009 57.4165C34.0007 57.4165 34.0005 57.4165 34.0003 57.4165V56.6665C31.7337 56.6684 29.5142 56.3265 27.342 55.6408C25.1698 54.9552 23.092 53.9276 21.1087 52.5582L25.2079 60.1683ZM25.2079 60.1683C22.6574 59.317 20.3045 58.1214 18.1467 56.5808L21.2023 53.5252L25.2079 60.1683ZM41.367 27.5832H34.7503V23.4165H50.2503V38.9165H46.0837V32.2998V30.4892L44.8033 31.7695L31.2626 45.3102L23.2888 38.6653L22.7626 38.2269L22.2783 38.7112L11.3419 49.6476C10.9322 49.0874 10.5914 48.5741 10.3174 48.1071C9.98872 47.547 9.61475 46.84 9.19511 45.9824L22.5713 32.6061L30.5452 39.251L31.0713 39.6895L31.5557 39.2052L41.8973 28.8635L43.1777 27.5832H41.367Z" fill="#D2E0CA" stroke="#016629" stroke-width="1.5"/>
</g>
</svg>
