<svg width="78" height="34" viewBox="0 0 78 34" fill="none" xmlns="http://www.w3.org/2000/svg">
<path d="M40.1307 22.1656C40.2903 22.1656 40.4499 22.1314 40.6094 22.0744C40.769 22.0174 40.902 21.9376 40.995 21.8349L47.4974 15.0042V21.2077C47.4974 21.47 47.6171 21.7095 47.8298 21.8919C48.0426 22.0744 48.3218 22.1656 48.641 22.1656C48.9601 22.1656 49.2526 22.0744 49.4654 21.8805C49.6782 21.6981 49.7845 21.4586 49.7845 21.1963V12.7349C49.7845 12.4612 49.6782 12.2218 49.4521 12.0393C49.2394 11.8569 48.9601 11.7656 48.641 11.7656C48.2952 11.7656 47.9894 11.8797 47.7634 12.1191L41.2344 18.9498V12.7349C41.2344 12.4612 41.128 12.2332 40.9286 12.0507C40.7291 11.8683 40.4499 11.777 40.1174 11.777C39.8116 11.777 39.5323 11.8683 39.3063 12.0393C39.0669 12.2218 38.9473 12.4612 38.9473 12.7463V21.2077C38.9473 21.4814 39.0669 21.7209 39.3063 21.9033C39.5456 22.0744 39.8116 22.1656 40.1307 22.1656Z" fill="#018D38"/>
<path d="M51.8447 13.6019H54.7036V21.208C54.7036 21.4703 54.8232 21.7098 55.036 21.8923C55.2488 22.0747 55.528 22.1659 55.8471 22.1659C56.1663 22.1659 56.4322 22.0747 56.6583 21.8923C56.871 21.7098 56.9907 21.4703 56.9907 21.208V13.6019H59.8363C60.1422 13.6019 60.4081 13.5107 60.6076 13.3396C60.807 13.1686 60.9134 12.9405 60.9134 12.6896C60.9134 12.4387 60.807 12.2107 60.6076 12.0396C60.4081 11.8686 60.1422 11.7773 59.8363 11.7773H51.8447C51.5388 11.7773 51.2729 11.8686 51.0734 12.0396C50.874 12.2107 50.7676 12.4387 50.7676 12.6896C50.7676 12.9405 50.874 13.1686 51.0734 13.3396C51.2862 13.5221 51.5521 13.6019 51.8447 13.6019Z" fill="#018D38"/>
<path d="M63.0548 22.1658C63.374 22.1658 63.6665 22.0746 63.8793 21.8807C64.092 21.6983 64.1984 21.4588 64.1984 21.1965V17.7983H65.2755L69.4508 21.8693C69.6503 22.0632 69.9428 22.1772 70.2886 22.1772C70.3019 22.1772 70.3151 22.1772 70.3151 22.1772C70.6343 22.1772 70.9135 22.086 71.113 21.9149C71.4188 21.6527 71.472 21.4018 71.4587 21.2307C71.4321 21.0141 71.3257 20.8202 71.1396 20.6377L67.1903 16.7948L70.754 13.3281C70.9534 13.1342 71.0598 12.929 71.0598 12.7123C71.0731 12.4842 70.9667 12.2676 70.7673 12.0737C70.5545 11.8685 70.2753 11.7658 69.9428 11.7772C69.6104 11.7886 69.3312 11.9027 69.1317 12.1079L65.2223 16.0193H64.225V12.7465C64.225 12.4728 64.1186 12.2334 63.8926 12.0509C63.6798 11.8685 63.4006 11.7772 63.0814 11.7772C62.7623 11.7772 62.4964 11.8685 62.2836 12.0395C62.0576 12.222 61.9512 12.4614 61.9512 12.7351V21.1965C61.9512 21.4588 62.0708 21.6983 62.2836 21.8807C62.4565 22.0746 62.7357 22.1658 63.0548 22.1658Z" fill="#018D38"/>
<path d="M67.576 0.818359H37.0056C32.4845 0.818359 28.6948 3.48678 27.6443 7.09029H1.52844C1.00984 7.09029 0.597628 7.4438 0.597628 7.88854C0.597628 8.33327 1.00984 8.68678 1.52844 8.68678H27.3783C27.365 8.82362 27.365 8.96046 27.365 9.09731V11.6403H10.0254C9.5068 11.6403 9.09458 11.9938 9.09458 12.4385C9.09458 12.8833 9.5068 13.2368 10.0254 13.2368H27.3517V16.1789H16.6607C16.1421 16.1789 15.7299 16.5324 15.7299 16.9771C15.7299 17.4219 16.1421 17.7754 16.6607 17.7754H27.3517V20.7175H29.2134V17.7754H34.5855C35.104 17.7754 35.5163 17.4219 35.5163 16.9771C35.5163 16.5324 35.104 16.1789 34.5855 16.1789H29.2134V13.2368H34.5855C35.104 13.2368 35.5163 12.8833 35.5163 12.4385C35.5163 11.9938 35.104 11.6403 34.5855 11.6403H29.2134V9.10871C29.2134 8.97187 29.2134 8.83503 29.2267 8.69818H34.5855C35.104 8.69818 35.5163 8.34467 35.5163 7.89994C35.5163 7.4552 35.104 7.10169 34.5855 7.10169H29.5724C30.5697 4.39906 33.5217 2.42625 37.0056 2.42625H67.576C71.871 2.42625 75.3682 5.42538 75.3682 9.10871V24.857C75.3682 28.5403 71.871 31.5394 67.576 31.5394H37.0056C33.5217 31.5394 30.5697 29.5666 29.5724 26.864H34.5855C35.104 26.864 35.5163 26.5105 35.5163 26.0657C35.5163 25.621 35.104 25.2675 34.5855 25.2675H29.2267C29.2134 25.1306 29.2134 24.9938 29.2134 24.857V22.3254H27.3517V24.857C27.3517 24.9938 27.3517 25.1306 27.365 25.2675H0.903466C0.384872 25.2675 -0.0273438 25.621 -0.0273438 26.0657C-0.0273438 26.5105 0.384872 26.864 0.903466 26.864H27.6443C28.6948 30.4561 32.4978 33.1359 37.0056 33.1359H67.576C72.8949 33.1359 77.2298 29.4184 77.2298 24.857V9.09731C77.2298 4.5359 72.8949 0.818359 67.576 0.818359Z" fill="#018D38"/>
<path d="M34.5862 22.3138C35.1048 22.3138 35.517 21.9603 35.517 21.5155C35.517 21.0708 35.1048 20.7173 34.5862 20.7173H29.2141H27.3524H5.50503C4.98643 20.7173 4.57422 21.0708 4.57422 21.5155C4.57422 21.9603 4.98643 22.3138 5.50503 22.3138H27.3524H29.2141H34.5862Z" fill="#D2E0CA"/>
</svg>
