<svg width="0" height="0" class="hidden">
  <symbol fill="none" xmlns="http://www.w3.org/2000/svg" viewBox="0 0 24 24" id="ic_arr_hor">
    <path d="M17 22L7 12L17 2" stroke="currentColor" stroke-width="2"></path>
  </symbol>
  <symbol fill="none" xmlns="http://www.w3.org/2000/svg" viewBox="0 0 21 20" id="ic_arr_ver">
    <path d="M2.16699 5.8335L10.5003 14.1668L18.8337 5.8335" stroke="currentColor" stroke-width="2"></path>
  </symbol>
  <symbol fill="none" xmlns="http://www.w3.org/2000/svg" viewBox="0 0 24 24" id="ic_arrow_hor">
    <path d="M2 12H22M22 12L13 3M22 12L13 21" stroke="currentColor" stroke-width="2"></path>
  </symbol>
  <symbol fill="none" xmlns="http://www.w3.org/2000/svg" viewBox="0 0 17 17" id="ic_close">
    <path d="M-0.738281 -0.738953L17.9284 17.9277M-0.738281 17.9277L17.9284 -0.738953" stroke="currentColor" stroke-width="1.5" stroke-linejoin="round"></path>
  </symbol>
  <symbol fill="none" xmlns="http://www.w3.org/2000/svg" viewBox="0 0 24 24" id="ic_drawing">
    <path d="M21.7363 21.4286L24.6231 16.4286L18.8496 16.4286L21.7363 21.4286ZM21.7363 8.57145L18.8496 13.5714L24.6231 13.5714L21.7363 8.57145ZM22.2363 16.9286L22.2363 13.0714L21.2363 13.0714L21.2363 16.9286L22.2363 16.9286Z" fill="currentColor"></path>
    <path d="M19.0186 21L14.0186 18.1132L14.0186 23.8868L19.0186 21ZM5.88648 21L10.8865 23.8868L10.8865 18.1132L5.88648 21ZM14.5186 20.5L10.3865 20.5L10.3865 21.5L14.5186 21.5L14.5186 20.5Z" fill="currentColor"></path>
    <path fill-rule="evenodd" clip-rule="evenodd" d="M2.3584 4.42859H20.581V6.61846H21.581V4.42859V3.42859H20.581H2.3584H1.3584V4.42859V20.2007V21.2007H2.3584H4.24734V20.2007H2.3584V4.42859Z" fill="currentColor"></path>
  </symbol>
  <symbol fill="none" xmlns="http://www.w3.org/2000/svg" viewBox="0 0 24 23" id="ic_menu">
    <path fill-rule="evenodd" clip-rule="evenodd" d="M17.666 17.1667H23.3327V22.8334H17.666V17.1667ZM9.16602 17.1667H14.8327V22.8334H9.16602V17.1667ZM0.666016 17.1667H6.33268V22.8334H0.666016V17.1667ZM17.666 8.66669H23.3327V14.3334H17.666V8.66669ZM9.16602 8.66669H14.8327V14.3334H9.16602V8.66669ZM0.666016 8.66669H6.33268V14.3334H0.666016V8.66669ZM17.666 0.166687H23.3327V5.83335H17.666V0.166687ZM9.16602 0.166687H14.8327V5.83335H9.16602V0.166687ZM0.666016 0.166687H6.33268V5.83335H0.666016V0.166687Z" fill="currentColor"></path>
  </symbol>
  <symbol fill="none" xmlns="http://www.w3.org/2000/svg" viewBox="0 0 20 17" id="ic_telegram">
    <path d="M18.0731 0.00172659C17.8412 0.0185946 17.6137 0.0729871 17.3992 0.162782H17.3964C17.1905 0.244393 16.2119 0.65606 14.7241 1.28006L9.39269 3.52545C5.56707 5.136 1.80646 6.722 1.80646 6.722L1.85124 6.70467C1.85124 6.70467 1.59196 6.78989 1.32113 6.9755C1.15381 7.08198 1.00983 7.22128 0.897908 7.385C0.76502 7.58 0.658131 7.87828 0.697853 8.18667C0.762853 8.70812 1.10085 9.02084 1.34352 9.19345C1.58907 9.36823 1.82307 9.44984 1.82307 9.44984H1.82885L5.35546 10.6379C5.51363 11.1456 6.43013 14.1587 6.65041 14.8528C6.78041 15.2673 6.9068 15.5266 7.06496 15.7245C7.14152 15.8256 7.23107 15.9101 7.33869 15.978C7.39463 16.0105 7.45428 16.0362 7.51635 16.0546L7.48024 16.0459C7.49107 16.0488 7.49974 16.0575 7.50769 16.0603C7.53657 16.0683 7.55607 16.0712 7.59291 16.077C8.15119 16.246 8.59969 15.8993 8.59969 15.8993L8.62496 15.8791L10.7071 13.9832L14.1969 16.6605L14.2764 16.6945C15.0036 17.0137 15.7403 16.836 16.1296 16.5226C16.5217 16.207 16.6741 15.8032 16.6741 15.8032L16.6994 15.7382L19.3962 1.92284C19.4727 1.58195 19.4922 1.26273 19.4077 0.952893C19.3206 0.639323 19.1194 0.369632 18.8437 0.196726C18.6122 0.0559762 18.3437 -0.0119606 18.0731 0.00172659ZM18.0001 1.48228C17.9972 1.52778 18.0059 1.52273 17.9857 1.61012V1.61806L15.3142 15.2897C15.3026 15.3092 15.2831 15.3518 15.2297 15.3945C15.1734 15.4392 15.1286 15.4674 14.8939 15.3742L10.6255 12.1018L8.04719 14.452L8.58885 10.9925L15.5626 4.4925C15.8501 4.22528 15.754 4.16895 15.754 4.16895C15.7742 3.84106 15.32 4.07289 15.32 4.07289L6.52619 9.52062L6.5233 9.50617L2.30841 8.087V8.08412L2.29758 8.08195C2.30496 8.0795 2.3122 8.0766 2.31924 8.07328L2.34235 8.06173L2.36474 8.05378C2.36474 8.05378 6.12824 6.46778 9.95385 4.85723C11.8692 4.0505 13.799 3.238 15.2831 2.61112C16.1633 2.24062 17.0444 1.87228 17.9265 1.50612C17.9857 1.483 17.9575 1.48228 18.0001 1.48228Z" fill="currentColor"></path>
  </symbol>
  <symbol fill="none" xmlns="http://www.w3.org/2000/svg" viewBox="0 0 18 18" id="ic_whatsapp">
    <path d="M15.1111 2.58672C14.2962 1.76354 13.3255 1.11087 12.2557 0.666765C11.1859 0.222661 10.0383 -0.00398232 8.88 5.29508e-05C4.02667 5.29508e-05 0.0711113 3.95561 0.0711113 8.80894C0.0711113 10.3645 0.48 11.8756 1.24444 13.2089L0 17.7778L4.66667 16.5512C5.95556 17.2534 7.40444 17.6267 8.88 17.6267C13.7333 17.6267 17.6889 13.6712 17.6889 8.81783C17.6889 6.46228 16.7733 4.24894 15.1111 2.58672ZM8.88 16.1334C7.56444 16.1334 6.27556 15.7778 5.14667 15.1112L4.88 14.9512L2.10667 15.6801L2.84444 12.9778L2.66667 12.7023C1.93577 11.5351 1.54768 10.186 1.54667 8.80894C1.54667 4.77339 4.83556 1.4845 8.87111 1.4845C10.8267 1.4845 12.6667 2.24894 14.0444 3.63561C14.7267 4.31469 15.2673 5.12242 15.635 6.01199C16.0027 6.90155 16.1903 7.85526 16.1867 8.81783C16.2044 12.8534 12.9156 16.1334 8.88 16.1334ZM12.8978 10.6578C12.6756 10.5512 11.5911 10.0178 11.3956 9.93783C11.1911 9.86672 11.0489 9.83116 10.8978 10.0445C10.7467 10.2667 10.3289 10.7645 10.2044 10.9067C10.08 11.0578 9.94667 11.0756 9.72444 10.9601C9.50222 10.8534 8.79111 10.6134 7.95556 9.86672C7.29778 9.28005 6.86222 8.56005 6.72889 8.33783C6.60444 8.11561 6.71111 8.00005 6.82667 7.8845C6.92444 7.78672 7.04889 7.62672 7.15556 7.50227C7.26222 7.37783 7.30667 7.28005 7.37778 7.13783C7.44889 6.98672 7.41333 6.86228 7.36 6.75561C7.30667 6.64894 6.86222 5.5645 6.68444 5.12005C6.50667 4.69339 6.32 4.74672 6.18667 4.73783H5.76C5.60889 4.73783 5.37778 4.79116 5.17333 5.01339C4.97778 5.23561 4.40889 5.76894 4.40889 6.85339C4.40889 7.93783 5.2 8.98672 5.30667 9.12894C5.41333 9.28005 6.86222 11.5023 9.06667 12.4534C9.59111 12.6845 10 12.8178 10.32 12.9156C10.8444 13.0845 11.3244 13.0578 11.7067 13.0045C12.1333 12.9423 13.0133 12.4712 13.1911 11.9556C13.3778 11.4401 13.3778 11.0045 13.3156 10.9067C13.2533 10.8089 13.12 10.7645 12.8978 10.6578Z" fill="currentColor"></path>
  </symbol>
</svg>